<?xml version="1.0" encoding="UTF-8"?>
<svg width="94px" height="94px" viewBox="0 0 94 94" version="1.1" xmlns="http://www.w3.org/2000/svg" xmlns:xlink="http://www.w3.org/1999/xlink">
    <!-- Generator: Sketch 50.2 (55047) - http://www.bohemiancoding.com/sketch -->
    <title>Logos / Icon / White</title>
    <desc>Created with Sketch.</desc>
    <defs>
        <path d="M43.7503607,58.5780925 C42.6297433,61.3730701 42.0153565,64.4178657 42.0153565,67.6110606 C42.0153565,81.0781102 53.0179867,92 66.5848179,92 C80.1576578,92 91.1565326,81.0781102 91.1565326,67.6110606 C91.1565326,54.1350623 81.4367539,47.1655155 81.4367539,47.1655155 C87.6256865,42.5882549 92,35.8401884 92,27.1002903 C92,13.2439722 80.4603447,2.09911056 66.5127139,2.09911056 C52.5605766,2.09911056 41.4813357,13.5720912 41.4813357,27.1002903 C41.4813357,40.6284893 31.4551148,41.9141194 26.1186626,41.9141194 C21.9268625,41.9141194 10.5945064,37.9401503 10.8851759,25.820626 C11.4387249,14.5228907 21.2734194,10.6883723 26.8427076,10.6883723 C28.6498158,10.6883723 29.9153925,11.0619805 29.9153925,11.0619805 L36.1336173,3.98728651 C36.1336173,3.98728651 32.3691841,2.13117674 27.0665307,2.00664065 C14.1381209,1.70163908 2.33483509,11.9374618 2.00736245,25.6103315 C1.68064089,39.2861841 12.2671706,50.5190413 25.9624371,50.8389574 C39.6622102,51.1633478 46.3874168,42.0476042 46.3874168,42.0476042 C50.8608734,47.9999819 58.0292195,51.778571 66.3384624,51.778571 C75.5429974,51.778571 82.125498,59.1194889 82.125498,67.6789216 C82.125498,76.2428286 75.1359098,83.1870208 66.5127139,83.1870208 C57.8872646,83.1870208 50.8976765,76.2428286 50.8976765,67.6789216 C50.8976765,66.6885987 50.9908109,65.7221389 51.1733243,64.7780509 L43.7503607,58.5780925 M66.0003698,12 C57.7168816,12 51,18.71729 51,26.9981509 C51,35.2812307 57.7168816,42 66.0003698,42 C74.2845977,42 81,35.2812307 81,26.9981509 C81,18.71729 74.2845977,12 66.0003698,12" id="path-1"></path>
    </defs>
    <g id="Logos-/-Icon-/-White" stroke="none" stroke-width="1" fill="none" fill-rule="evenodd">
        <mask id="mask-2" fill="white">
            <use xlink:href="#path-1"></use>
        </mask>
        <use id="Mask" fill="#BD2531" xlink:href="#path-1"></use>
        <g id="Colors-/-White" mask="url(#mask-2)" fill="#FFFFFF">
            <g transform="translate(-3.000000, -3.000000)" id="Color">
                <rect x="0" y="0" width="100" height="100"></rect>
            </g>
        </g>
    </g>
</svg>